<?xml version="1.0" standalone="no"?>
<!DOCTYPE svg PUBLIC "-//W3C//DTD SVG 20010904//EN"
 "http://www.w3.org/TR/2001/REC-SVG-20010904/DTD/svg10.dtd">
<svg version="1.0" xmlns="http://www.w3.org/2000/svg"
 width="959.000000pt" height="959.000000pt" viewBox="0 0 959.000000 959.000000"
 preserveAspectRatio="xMidYMid meet">
<metadata>
Created by potrace 1.11, written by Peter Selinger 2001-2013
</metadata>
<g transform="translate(0.000000,959.000000) scale(0.100000,-0.100000)"
fill="#000000" stroke="none">
<path d="M4621 9273 c-14 -3 -34 -11 -45 -18 -12 -7 -57 -15 -101 -18 -136
-10 -268 -27 -279 -35 -6 -5 -43 -14 -83 -21 -97 -17 -94 -16 -128 -30 -47
-20 -148 -47 -227 -60 -26 -4 -65 -20 -87 -34 -23 -15 -47 -27 -55 -27 -8 0
-16 -4 -18 -10 -5 -17 -273 -70 -352 -70 -31 0 -46 -4 -46 -13 0 -7 -11 -14
-26 -15 -31 -2 -62 -18 -94 -47 -28 -26 -81 -59 -122 -77 -16 -7 -28 -16 -28
-21 0 -4 -19 -17 -42 -28 -123 -57 -163 -84 -165 -113 -1 -16 -11 -35 -22 -42
-11 -8 -26 -20 -33 -27 -7 -7 -35 -18 -63 -25 -53 -14 -125 -55 -125 -73 0
-16 -54 -79 -67 -79 -7 0 -13 -4 -13 -10 0 -5 -17 -18 -37 -29 -21 -10 -46
-32 -55 -48 -9 -16 -37 -49 -61 -74 -28 -28 -47 -57 -51 -79 -7 -37 -37 -80
-55 -80 -6 0 -11 -4 -11 -10 0 -5 -19 -18 -43 -28 -30 -13 -47 -29 -56 -51 -8
-17 -17 -31 -21 -31 -5 0 -11 -13 -15 -30 -4 -16 -10 -30 -14 -30 -7 0 -41
-54 -43 -67 -1 -11 -28 -49 -28 -40 0 15 -26 -17 -50 -63 -14 -25 -42 -60 -62
-79 -23 -21 -38 -44 -38 -57 0 -13 -4 -26 -10 -29 -11 -7 -33 -54 -51 -110 -7
-22 -18 -47 -25 -55 -6 -8 -10 -26 -8 -39 3 -13 -3 -31 -11 -40 -44 -45 -74
-86 -85 -114 -6 -18 -19 -50 -29 -72 -60 -132 -71 -156 -71 -164 0 -5 -7 -11
-15 -15 -8 -3 -15 -17 -15 -31 0 -15 -6 -25 -15 -25 -25 0 -30 -47 -30 -277 0
-123 -2 -223 -5 -223 -13 0 0 -194 17 -265 3 -11 6 -32 8 -47 2 -14 7 -41 13
-60 6 -18 20 -123 32 -233 11 -110 26 -221 31 -247 8 -36 7 -84 -6 -195 -20
-169 -15 -246 19 -337 24 -64 24 -67 4 -213 -1 -7 -9 -15 -18 -18 -10 -3 -25
-14 -34 -24 -15 -16 -15 -19 3 -35 19 -17 22 -17 78 0 32 10 60 21 63 24 13
18 70 38 121 43 49 5 65 1 113 -22 30 -16 61 -33 68 -38 7 -6 25 -13 41 -17
65 -15 101 -75 126 -211 4 -22 13 -58 19 -80 6 -22 21 -88 32 -147 11 -59 32
-140 46 -180 15 -41 30 -114 35 -168 15 -155 34 -235 69 -295 32 -52 50 -118
50 -180 0 -51 -4 -64 -26 -89 -31 -32 -84 -57 -126 -58 -30 -1 -52 -18 -22
-18 13 0 12 -4 -6 -18 -17 -14 -21 -25 -17 -44 6 -21 14 -26 53 -32 26 -3 83
-6 127 -6 77 0 149 -13 174 -33 7 -4 17 -34 23 -65 15 -76 32 -132 39 -132 10
0 37 -58 62 -130 25 -76 36 -97 59 -122 9 -10 40 -62 70 -115 63 -116 100
-173 111 -173 15 0 74 -47 142 -113 44 -43 90 -77 131 -96 35 -16 70 -38 77
-49 8 -10 32 -31 54 -46 22 -14 55 -37 73 -51 18 -13 59 -29 90 -36 35 -7 78
-26 112 -49 30 -21 66 -41 80 -45 14 -3 34 -10 45 -14 11 -5 49 -14 83 -20 35
-7 87 -23 115 -35 50 -22 201 -46 290 -46 21 0 59 -10 85 -22 51 -24 51 -24
369 -15 100 3 190 10 201 16 12 6 75 11 144 11 68 0 143 5 167 11 39 9 46 7
77 -16 52 -40 52 -31 41 -491 l-7 -321 28 -34 c15 -19 48 -56 75 -81 26 -26
47 -53 47 -59 0 -17 -40 -49 -69 -55 -14 -2 -61 -23 -103 -44 -42 -22 -82 -40
-88 -40 -7 0 -43 -16 -81 -35 -76 -38 -122 -43 -220 -25 -102 19 -287 79 -348
113 -19 10 -69 30 -112 43 -49 16 -79 31 -81 42 -9 33 -3 133 8 140 31 20 42
88 28 174 -8 45 -18 48 -38 10 -8 -15 -47 -53 -88 -83 -73 -56 -134 -79 -211
-79 -18 -1 -50 -9 -72 -20 -22 -11 -46 -19 -53 -20 -8 0 -25 -8 -38 -19 l-24
-19 28 -10 c15 -5 41 -10 57 -11 22 -1 43 -14 78 -51 26 -27 72 -61 102 -76
30 -14 61 -31 68 -37 91 -88 202 -157 251 -157 10 0 39 -14 64 -31 25 -17 62
-33 81 -35 39 -5 104 -22 136 -34 11 -4 43 -17 72 -29 50 -20 54 -20 140 -5
161 28 263 64 313 108 14 13 59 33 100 46 41 12 91 35 110 49 19 15 63 40 98
56 34 16 62 32 62 36 0 4 33 24 73 44 48 24 80 47 91 66 9 16 23 29 31 29 8 0
30 10 51 22 l36 21 -23 18 c-13 10 -40 21 -59 25 -19 4 -39 10 -45 14 -5 4
-43 10 -84 14 -58 5 -84 13 -126 38 -75 47 -83 62 -101 190 -12 88 -14 169
-11 373 3 143 6 267 7 275 2 8 12 25 23 38 19 20 49 32 165 62 25 6 42 17 42
25 0 8 -6 15 -12 15 -9 0 -8 4 2 10 11 7 6 10 -20 10 -19 1 -104 3 -189 6 -91
4 -162 2 -175 -4 -79 -36 -93 -38 -436 -52 -283 -12 -535 -2 -737 31 -70 11
-171 25 -223 30 -91 9 -180 32 -180 48 0 4 -28 22 -63 40 -35 18 -79 47 -98
65 -19 18 -54 40 -79 50 -89 35 -171 94 -206 149 -14 21 -36 42 -51 48 -14 5
-34 21 -45 34 -11 14 -24 25 -29 25 -21 0 -71 46 -87 80 -15 32 -52 95 -84
144 -7 10 -30 39 -51 65 -20 25 -37 53 -37 63 0 9 -4 20 -10 23 -5 3 -10 14
-10 23 0 9 -15 36 -34 59 -18 24 -46 68 -61 98 -15 31 -50 82 -79 113 -55 60
-71 91 -80 156 -3 22 -16 80 -29 130 -14 50 -32 123 -41 161 -9 39 -29 106
-45 150 -73 205 -97 301 -136 529 -4 22 -18 62 -31 89 -20 39 -27 74 -35 170
-10 121 -30 261 -50 347 -24 101 -38 518 -24 720 6 87 19 156 60 315 33 130
56 227 61 250 2 11 22 62 44 113 22 51 40 100 40 108 0 7 6 14 13 14 8 0 24
20 36 45 47 94 121 168 270 272 69 48 100 73 156 125 34 32 74 57 127 77 42
17 82 31 87 31 6 0 11 4 11 9 0 13 55 21 206 30 168 10 245 1 330 -41 98 -48
104 -52 104 -60 0 -5 6 -8 14 -8 7 0 19 -6 25 -13 6 -8 30 -19 53 -26 65 -19
107 -41 174 -88 34 -24 64 -43 68 -43 5 0 74 -49 111 -78 6 -5 24 -26 40 -47
17 -22 40 -50 53 -63 12 -12 22 -28 22 -35 1 -7 33 -32 72 -57 39 -25 76 -50
82 -55 15 -15 115 -55 134 -55 20 0 105 -31 112 -41 12 -17 120 -49 167 -49
43 0 59 5 97 35 25 19 64 44 88 56 24 11 86 65 138 119 52 53 117 110 144 126
26 16 67 41 90 56 22 15 48 31 56 35 8 3 25 16 36 27 12 12 52 48 89 81 73 64
80 71 139 134 21 22 42 41 47 41 4 0 14 6 21 13 22 22 150 80 198 89 273 55
495 11 614 -120 79 -88 111 -118 129 -125 25 -9 145 -96 179 -129 16 -16 35
-28 43 -28 8 0 15 -4 15 -9 0 -5 15 -16 33 -24 35 -17 44 -32 72 -109 10 -26
26 -55 36 -64 11 -9 19 -24 19 -33 0 -9 6 -25 13 -36 8 -11 19 -42 26 -70 7
-27 19 -63 26 -80 16 -33 52 -180 65 -264 5 -29 13 -58 19 -64 6 -6 11 -19 11
-29 0 -10 4 -18 9 -18 5 0 12 -15 16 -32 16 -79 76 -315 84 -333 5 -11 14 -74
19 -140 7 -84 16 -134 31 -165 15 -33 21 -67 22 -130 1 -47 3 -76 6 -65 2 11
6 30 9 43 2 12 11 22 18 22 8 0 16 4 18 9 2 6 16 12 32 15 16 3 38 14 50 24
73 64 129 71 256 32 52 -16 107 -31 121 -34 30 -6 88 -60 105 -97 6 -13 34
-70 62 -125 48 -96 52 -109 62 -214 15 -161 -3 -289 -48 -342 -31 -37 -57
-263 -31 -279 19 -11 36 6 43 46 4 18 19 47 35 63 17 19 32 51 39 84 6 29 21
96 33 148 13 60 23 148 26 240 5 123 2 161 -15 247 -12 57 -29 117 -37 134
-21 39 -114 129 -185 178 l-55 37 -3 154 c-2 108 2 168 12 204 10 39 12 94 9
229 -5 149 -3 189 12 250 22 87 26 304 8 447 -7 52 -17 151 -23 220 -13 140
-42 332 -66 430 -27 112 -85 290 -110 340 -13 26 -24 53 -24 59 0 12 -21 53
-31 61 -4 3 -10 16 -14 30 -7 26 -62 121 -74 130 -4 3 -13 21 -21 40 -8 19
-16 37 -20 40 -15 14 -59 91 -75 133 -10 26 -28 53 -40 60 -25 13 -105 110
-105 127 0 5 -4 10 -9 10 -9 0 -24 12 -94 77 -15 14 -36 42 -47 62 -10 21 -40
55 -67 76 -59 48 -109 93 -186 168 -33 31 -62 57 -65 57 -3 0 -26 21 -52 48
-45 46 -82 69 -222 139 -36 18 -69 40 -72 48 -3 8 -10 15 -16 15 -5 0 -31 15
-57 34 -44 31 -112 69 -216 122 -41 21 -122 50 -297 109 -47 15 -89 31 -95 36
-5 4 -28 10 -50 14 -67 12 -252 54 -279 64 -61 24 -287 40 -606 45 -184 2
-346 2 -359 -1z"/>
<path d="M6172 5764 c-6 -3 -10 -9 -7 -14 2 -4 -18 -10 -45 -14 -27 -4 -52
-11 -55 -16 -3 -6 -18 -10 -33 -10 -15 0 -34 -5 -42 -10 -11 -7 1 -10 41 -10
85 0 268 -20 329 -35 34 -9 61 -22 69 -35 8 -12 40 -38 70 -57 31 -20 62 -44
69 -54 7 -11 21 -19 30 -19 9 0 26 -7 36 -15 27 -21 45 -19 65 6 16 19 16 27
4 73 -7 28 -18 53 -23 54 -6 2 -16 10 -23 17 -7 7 -23 16 -35 19 -12 4 -22 12
-22 17 0 5 -5 9 -10 9 -6 0 -29 12 -52 28 -23 15 -79 36 -124 48 -78 20 -213
30 -242 18z"/>
<path d="M3305 5698 c-33 -4 -73 -12 -89 -18 -16 -5 -44 -10 -62 -10 -57 0
-158 -31 -194 -59 -19 -15 -57 -36 -83 -47 -86 -34 -157 -127 -157 -208 0 -45
2 -48 23 -43 85 19 193 73 230 114 43 47 135 87 235 103 112 17 198 2 357 -61
68 -27 129 -49 134 -49 12 0 61 73 61 90 0 6 -28 37 -62 70 -44 43 -71 61 -97
65 -68 11 -136 28 -156 38 -35 18 -79 23 -140 15z"/>
<path d="M7441 4785 c-1 -14 -68 -38 -81 -30 -5 3 -10 -1 -10 -10 0 -8 -9 -41
-20 -73 -17 -46 -20 -82 -20 -192 0 -74 5 -173 11 -220 6 -47 11 -91 11 -97 3
-33 26 -7 45 50 11 34 28 80 36 102 18 47 47 287 46 372 -1 50 -15 127 -18 98z"/>
<path d="M1291 4518 c-16 -35 -30 -257 -20 -325 3 -22 2 -49 -2 -59 -13 -33
-9 -226 6 -288 7 -32 25 -70 38 -85 13 -14 33 -42 45 -61 12 -19 48 -57 82
-85 82 -68 113 -96 130 -121 15 -21 93 -64 116 -64 7 0 26 -17 42 -38 17 -21
43 -44 59 -52 15 -8 42 -24 60 -36 29 -20 51 -22 141 -16 29 2 28 20 -1 31
-29 11 -44 30 -49 59 -3 21 -24 39 -68 57 -35 14 -59 34 -120 98 -36 38 -82
77 -102 88 -53 27 -144 121 -226 232 -24 31 -47 57 -52 57 -6 0 -10 8 -10 18
0 10 -4 22 -9 28 -18 17 -28 207 -19 368 6 111 5 169 -3 193 -13 41 -20 41
-38 1z"/>
<path d="M6075 4270 c-3 -5 -21 -17 -40 -26 -55 -26 -80 -89 -80 -199 1 -108
15 -162 52 -202 48 -51 79 -66 119 -58 51 9 125 85 143 147 7 26 13 49 13 50
-1 2 3 21 8 42 14 65 -4 134 -48 179 -54 56 -150 95 -167 67z"/>
<path d="M3452 4200 c-46 -33 -67 -61 -77 -102 -4 -16 -12 -28 -18 -28 -13 0
-2 -112 16 -160 7 -19 25 -54 40 -77 15 -24 27 -46 27 -50 0 -5 16 -18 35 -30
52 -34 123 -32 157 5 14 15 29 38 33 52 4 14 12 34 19 45 29 47 38 105 25 158
-11 46 -57 145 -80 173 -10 13 -98 44 -122 44 -8 0 -33 -13 -55 -30z"/>
<path d="M7330 3986 c0 -2 7 -9 15 -16 12 -10 15 -10 15 4 0 9 -7 16 -15 16
-8 0 -15 -2 -15 -4z"/>
<path d="M8000 3890 c0 -19 3 -21 12 -12 9 9 9 15 0 24 -9 9 -12 7 -12 -12z"/>
<path d="M7912 3823 c0 -10 -2 -30 -6 -44 -6 -19 -3 -28 8 -32 19 -8 31 44 16
72 -13 26 -19 27 -18 4z"/>
<path d="M7234 3783 c-4 -15 -22 -55 -40 -88 -50 -92 -84 -197 -94 -290 -6
-59 -15 -92 -30 -112 -11 -16 -36 -70 -55 -121 -18 -50 -45 -103 -58 -116 -13
-13 -32 -34 -43 -48 -10 -13 -36 -36 -56 -52 -21 -16 -38 -35 -38 -43 0 -30
-78 -121 -105 -123 -5 0 -21 -18 -34 -40 -13 -21 -34 -41 -45 -44 -12 -3 -43
-27 -71 -52 -27 -25 -67 -57 -89 -71 -21 -13 -40 -33 -43 -43 -3 -9 -17 -24
-31 -31 -15 -7 -34 -18 -42 -24 -8 -7 -31 -18 -50 -25 -19 -7 -42 -20 -50 -27
-8 -7 -30 -27 -47 -43 -18 -17 -37 -30 -43 -30 -5 0 -10 -6 -10 -12 0 -17 -52
-49 -113 -72 -31 -12 -51 -26 -57 -41 -4 -12 -21 -27 -37 -33 -63 -24 -128
-42 -149 -42 -12 0 -29 -6 -36 -12 -22 -21 -71 -54 -105 -72 -21 -10 -33 -24
-33 -36 0 -21 13 -23 125 -20 62 1 141 26 157 49 15 19 80 61 96 61 6 0 46 20
88 45 41 25 82 45 89 45 8 0 21 8 31 17 17 17 102 56 161 74 17 5 53 33 80 61
26 28 55 59 64 68 9 10 48 35 85 55 50 27 101 70 185 154 63 64 134 128 156
143 36 23 43 34 54 84 7 32 28 80 47 107 35 51 61 111 81 183 6 22 20 51 31
64 11 13 20 29 20 36 0 22 53 52 156 85 54 18 106 38 114 45 8 7 44 25 80 40
36 15 90 46 120 69 30 22 67 49 83 58 15 10 27 23 27 30 0 20 40 53 83 68 42
15 47 32 14 53 -20 14 -27 14 -67 0 -25 -8 -65 -25 -90 -38 -25 -13 -69 -31
-98 -40 -29 -10 -75 -33 -102 -52 -40 -28 -59 -34 -100 -34 -71 0 -85 17 -93
115 -3 43 -10 81 -15 84 -6 3 -12 17 -13 31 -6 36 -37 38 -45 3z"/>
<path d="M4550 3339 c-7 -24 -10 -64 -7 -89 4 -34 -2 -68 -26 -140 -27 -81
-31 -110 -31 -194 0 -97 0 -99 29 -122 36 -29 52 -28 79 9 19 25 21 42 20 140
0 66 -7 145 -17 192 -12 56 -15 94 -9 125 7 42 -3 98 -20 116 -4 3 -12 -14
-18 -37z"/>
<path d="M4525 2179 c-21 -10 -40 -20 -42 -22 -9 -10 13 -40 45 -62 l36 -25
38 37 c41 40 39 51 -12 76 -24 12 -32 12 -65 -4z"/>
<path d="M4270 1413 c0 -39 5 -75 10 -78 13 -8 13 115 0 135 -7 10 -10 -7 -10
-57z"/>
<path d="M5988 823 c-35 -9 -17 -30 35 -44 48 -13 52 -17 55 -46 3 -26 8 -33
33 -38 24 -5 35 -17 49 -49 12 -30 27 -47 50 -56 17 -7 42 -30 56 -51 13 -21
30 -41 37 -46 8 -4 25 -28 37 -53 12 -25 57 -77 100 -117 60 -56 83 -85 101
-130 13 -32 34 -77 46 -101 13 -24 23 -54 23 -68 0 -24 1 -24 95 -24 l95 0 0
28 c0 33 -100 207 -134 233 -12 10 -35 42 -50 73 -16 31 -32 56 -36 56 -4 0
-22 28 -40 63 -42 81 -45 84 -103 114 -27 13 -71 45 -97 69 -52 49 -123 89
-175 98 -36 7 -51 20 -56 50 -2 11 -15 23 -29 26 -52 14 -76 17 -92 13z"/>
<path d="M3577 814 c-16 -16 -5 -24 34 -24 28 0 39 4 37 13 -5 13 -60 22 -71
11z"/>
<path d="M3386 685 c-8 -19 -22 -35 -30 -35 -29 0 -66 -23 -66 -41 0 -28 18
-33 76 -19 47 12 55 17 65 47 6 18 22 41 35 50 36 23 29 33 -21 33 -42 0 -46
-2 -59 -35z"/>
<path d="M3182 524 c-12 -8 -20 -19 -17 -24 3 -5 -4 -14 -16 -20 -27 -15 -69
-52 -69 -61 0 -14 30 -18 56 -9 19 8 25 16 21 29 -4 15 5 23 40 36 47 18 65
41 42 56 -20 12 -32 11 -57 -7z"/>
<path d="M2909 252 c-8 -12 -20 -22 -27 -22 -7 0 -10 -4 -7 -10 9 -15 55 -12
61 4 3 8 1 23 -4 32 -9 16 -11 16 -23 -4z"/>
<path d="M2830 140 c0 -5 5 -10 10 -10 6 0 10 5 10 10 0 6 -4 10 -10 10 -5 0
-10 -4 -10 -10z"/>
</g>
</svg>
